<svg width="47" height="40" viewBox="0 0 47 40" fill="none" xmlns="http://www.w3.org/2000/svg">
<path d="M6.53059 21.4286H2.85713C1.42854 21.4286 0.408147 22.449 0.408147 23.8776V36.9388C0.408147 38.3674 1.42854 39.3878 2.85713 39.3878H6.53059C7.95918 39.3878 8.97957 38.3674 8.97957 36.9388V23.8776C8.97957 22.6531 7.95918 21.4286 6.53059 21.4286ZM6.93874 36.9388C6.93874 37.1429 6.73464 37.3469 6.53059 37.3469H2.85713C2.65303 37.3469 2.44898 37.1428 2.44898 36.9388V23.8775C2.44898 23.6734 2.65308 23.4694 2.85713 23.4694H6.53059C6.73469 23.4694 6.93874 23.6735 6.93874 23.8775V36.9388ZM18.9795 19.1837H15.3061C13.8775 19.1837 12.8571 20.2041 12.8571 21.6327V37.3469C12.8571 38.7755 13.8775 39.7959 15.3061 39.7959H18.9795C20.4081 39.7959 21.4285 38.7755 21.4285 37.3469V21.4286C21.4285 20.2041 20.4081 19.1837 18.9795 19.1837ZM19.3877 37.1429C19.3877 37.347 19.1836 37.551 18.9796 37.551H15.3061C15.102 37.551 14.898 37.3469 14.898 37.1429V21.4286C14.898 21.2245 15.1021 21.0205 15.3061 21.0205H18.9796C19.1837 21.0205 19.3877 21.2246 19.3877 21.4286V37.1429ZM31.4285 16.7347H27.7551C26.3265 16.7347 25.3061 17.7551 25.3061 19.1837V37.551C25.3061 38.9796 26.3265 40 27.7551 40H31.4285C32.8571 40 33.8775 38.9796 33.8775 37.551V19.1837C33.8775 17.7551 32.653 16.7347 31.4285 16.7347ZM31.8367 37.551C31.8367 37.7551 31.6326 37.9592 31.4285 37.9592H27.7551C27.551 37.9592 27.3469 37.7551 27.3469 37.551V19.1837C27.3469 18.9796 27.551 18.7755 27.7551 18.7755H31.4285C31.6326 18.7755 31.8367 18.9796 31.8367 19.1837V37.551ZM43.8775 14.2857H40.2041C38.7755 14.2857 37.7551 15.3061 37.7551 16.7347V37.3469C37.7551 38.7755 38.7755 39.7959 40.2041 39.7959H43.8775C45.3061 39.7959 46.3265 38.7755 46.3265 37.3469V16.7347C46.3265 15.5102 45.102 14.2857 43.8775 14.2857ZM44.2857 37.347C44.2857 37.5511 44.0816 37.7551 43.8775 37.7551H40.2041C40 37.7551 39.7959 37.551 39.7959 37.347V16.7348C39.7959 16.5307 40 16.3266 40.2041 16.3266H43.8775C44.0816 16.3266 44.2857 16.5307 44.2857 16.7348V37.347ZM45.5102 4.78053e-05C45.3061 4.78053e-05 45.3061 4.78053e-05 45.5102 4.78053e-05H40.6122C40 4.78053e-05 39.5918 0.408195 39.5918 1.02044C39.5918 1.63268 40 2.04083 40.6122 2.04083H42.653C29.7959 9.18367 15.7143 13.2653 1.02039 14.0816C0.408147 14.0816 0 14.6939 0 15.102C0 15.7143 0.408147 16.1224 1.02039 16.1224C16.5306 15.3061 31.0204 11.0204 44.4898 3.46937V5.5102C44.4898 6.12245 44.8979 6.53059 45.5102 6.53059C46.1224 6.53059 46.5305 6.12245 46.5305 5.5102V0.816342C46.5305 0.408195 46.1224 4.78053e-05 45.5102 4.78053e-05Z" fill="#C7BCAB"/>
</svg>
