<svg width="34" height="24" viewBox="0 0 34 24" fill="none" xmlns="http://www.w3.org/2000/svg">
<path fill-rule="evenodd" clip-rule="evenodd" d="M14.8982 14.0223C15.3801 16.8609 15.9655 19.8256 16.2893 20.4354C16.7485 21.2994 17.8234 21.6345 18.6893 21.1752C19.5533 20.7159 19.8845 19.6374 19.4253 18.7734C19.1015 18.1635 16.9763 16.0157 14.8982 14.0223ZM14.1678 10.7489C15.1937 11.6976 20.3495 16.4957 21.0893 17.8924C22.0342 19.6731 21.3528 21.8905 19.5702 22.8374C19.0262 23.1254 18.4408 23.2609 17.8648 23.2609C16.5528 23.2609 15.2822 22.555 14.6253 21.3183C13.8855 19.9216 12.8069 12.9625 12.598 11.5809C12.5396 11.1856 12.7354 10.794 13.0874 10.6096C13.4431 10.4214 13.8723 10.4759 14.1678 10.7489ZM17 1C25.8226 1 33 8.17928 33 17C33 18.2857 32.8513 19.5525 32.5558 20.7647L32.3826 21.4838H23.6429V19.6014H30.8805C31.0386 18.7562 31.1177 17.8828 31.1177 17C31.1177 9.21458 24.7836 2.88233 17 2.88233C9.2146 2.88233 2.88237 9.21458 2.88237 17C2.88237 17.8828 2.96143 18.7562 3.11767 19.6014H11.2419V21.4838H1.61555L1.44238 20.7647C1.1487 19.5525 1 18.2856 1 17C1 8.17928 8.17743 1 17 1ZM26.0425 7.51143L27.3733 8.84227L25.4947 10.7209L24.1639 9.39002L26.0425 7.51143ZM7.95607 7.51143L9.83465 9.39L8.50382 10.7208L6.62527 8.84223L7.95608 7.5114L7.95607 7.51143ZM17.9405 4.15538V6.81327H16.0581V4.15537L17.9405 4.15538Z" fill="white" stroke="white" stroke-width="0.0333333"/>
</svg>
