<svg width="40" height="40" viewBox="0 0 40 40" fill="none" xmlns="http://www.w3.org/2000/svg">
<g clip-path="url(#clip0_160_24)">
<rect x="-3.7037" y="-3.70374" width="47.4074" height="47.4074" rx="5" fill="#D9D9D9"/>
<path d="M29.8765 12.5926H10.1234C9.31357 12.5926 8.64197 11.921 8.64197 11.1111C8.64197 10.3012 9.31357 9.62964 10.1234 9.62964H29.8765C30.6864 9.62964 31.358 10.3012 31.358 11.1111C31.358 11.921 30.6864 12.5926 29.8765 12.5926Z" fill="#283A55"/>
<path d="M29.8765 21.4815H10.1234C9.31357 21.4815 8.64197 20.8099 8.64197 20C8.64197 19.1901 9.31357 18.5185 10.1234 18.5185H29.8765C30.6864 18.5185 31.358 19.1901 31.358 20C31.358 20.8099 30.6864 21.4815 29.8765 21.4815Z" fill="#283A55"/>
<path d="M29.8765 30.3704H10.1234C9.31357 30.3704 8.64197 29.6988 8.64197 28.8889C8.64197 28.079 9.31357 27.4074 10.1234 27.4074H29.8765C30.6864 27.4074 31.358 28.079 31.358 28.8889C31.358 29.6988 30.6864 30.3704 29.8765 30.3704Z" fill="#283A55"/>
</g>
<defs>
<clipPath id="clip0_160_24">
<path d="M0 5C0 2.23858 2.23858 0 5 0H35C37.7614 0 40 2.23858 40 5V35C40 37.7614 37.7614 40 35 40H5C2.23858 40 0 37.7614 0 35V5Z" fill="white"/>
</clipPath>
</defs>
</svg>
