<svg width="45" height="39" viewBox="0 0 45 39" fill="none" xmlns="http://www.w3.org/2000/svg">
<path d="M34.7709 8.49057H10.5121C7.83257 8.49057 5.66037 10.6628 5.66037 13.3423V27.8976C5.66037 30.5771 7.83257 32.7493 10.5121 32.7493H34.7709C37.4504 32.7493 39.6226 30.5771 39.6226 27.8976V13.3423C39.6226 10.6628 37.4504 8.49057 34.7709 8.49057Z" stroke="#C7BCAB" stroke-width="2" stroke-linecap="round"/>
<path d="M43.8679 12.7358V32.1428C43.8679 34.8225 41.6958 36.9946 39.0162 36.9946H9.90567" stroke="#C7BCAB" stroke-width="2" stroke-linecap="round"/>
<path d="M22.5 24.6226C24.6102 24.6226 26.3208 22.912 26.3208 20.8019C26.3208 18.6918 24.6102 16.9811 22.5 16.9811C20.3899 16.9811 18.6793 18.6918 18.6793 20.8019C18.6793 22.912 20.3899 24.6226 22.5 24.6226Z" stroke="#C7BCAB" stroke-width="2" stroke-linecap="round"/>
</svg>
